<!DOCTYPE svg PUBLIC "-//W3C//DTD SVG 1.1//EN" "http://www.w3.org/Graphics/SVG/1.1/DTD/svg11.dtd">
<!-- Uploaded to: SVG Repo, www.svgrepo.com, Transformed by: SVG Repo Mixer Tools -->
<svg width="256px" height="256px" viewBox="-2.4 -2.4 28.80 28.80" fill="none" xmlns="http://www.w3.org/2000/svg" transform="rotate(0)matrix(1, 0, 0, 1, 0, 0)">
<g id="SVGRepo_bgCarrier" stroke-width="0"/>
<g id="SVGRepo_tracerCarrier" stroke-linecap="round" stroke-linejoin="round" stroke="#5d1313" stroke-width="1.6799999999999997" data-darkreader-inline-stroke="" style="--darkreader-inline-stroke: var(--darkreader-text-5d1313, #e99494);"> <path d="M16 11L17.6965 12.5268C19.239 13.9151 20.0103 14.6093 20.0103 15.5C20.0103 16.3907 19.239 17.0849 17.6965 18.4732L16 20" stroke="#6fb87e" stroke-width="1.032" stroke-linecap="round" data-darkreader-inline-stroke="" style="--darkreader-inline-stroke: var(--darkreader-text-6fb87e, #78bc86);"/> <path d="M8.00005 4.82959L6.30358 6.35641C4.76102 7.74471 3.98975 8.43886 3.98975 9.32959C3.98975 10.2203 4.76102 10.9145 6.30358 12.3028L8.00005 13.8296" stroke="#6fb87e" stroke-width="1.032" stroke-linecap="round" data-darkreader-inline-stroke="" style="--darkreader-inline-stroke: var(--darkreader-text-6fb87e, #78bc86);"/> <path d="M13.9868 5L12.9934 8.70743M11.8432 13L10.0132 19.8297" stroke="#6fb87e" stroke-width="1.032" stroke-linecap="round" data-darkreader-inline-stroke="" style="--darkreader-inline-stroke: var(--darkreader-text-6fb87e, #78bc86);"/> </g>
<g id="SVGRepo_iconCarrier"> <path d="M16 11L17.6965 12.5268C19.239 13.9151 20.0103 14.6093 20.0103 15.5C20.0103 16.3907 19.239 17.0849 17.6965 18.4732L16 20" stroke="#6fb87e" stroke-width="2.4" stroke-linecap="round" data-darkreader-inline-stroke="" style="--darkreader-inline-stroke: var(--darkreader-text-6fb87e, #78bc86);"/> <path d="M8.00005 4.82959L6.30358 6.35641C4.76102 7.74471 3.98975 8.43886 3.98975 9.32959C3.98975 10.2203 4.76102 10.9145 6.30358 12.3028L8.00005 13.8296" stroke="#6fb87e" stroke-width="2.4" stroke-linecap="round" data-darkreader-inline-stroke="" style="--darkreader-inline-stroke: var(--darkreader-text-6fb87e, #78bc86);"/> <path d="M13.9868 5L12.9934 8.70743M11.8432 13L10.0132 19.8297" stroke="#6fb87e" stroke-width="2.4" stroke-linecap="round" data-darkreader-inline-stroke="" style="--darkreader-inline-stroke: var(--darkreader-text-6fb87e, #78bc86);"/> </g>
</svg>